<svg xmlns="http://www.w3.org/2000/svg" viewBox="0 0 1024 1024" width="22" height="22">
  <defs>
    <mask id="adb-cutout">
      <rect width="1024" height="1024" fill="#fff"/>
      <path d="M183.466667 552.533333h75.093333l-9.386667-34.56c-9.813333-32.853333-18.346667-69.12-27.733333-103.253333h-1.706667c-8.106667 34.56-17.493333 70.4-26.88 103.253333l-9.386666 34.56zM294.4 682.666667l-22.186667-81.066667h-102.4L147.626667 682.666667h-64l101.12-315.733334h74.24L360.533333 682.666667H294.4zM397.482667 682.666667V366.933333h86.613333c96.426667 0 156.16 49.92 156.16 156.586667 0 106.24-59.733333 159.146667-152.746667 159.146667h-90.026666z m63.146666-50.773334h19.626667c58.88 0 95.573333-31.573333 95.573333-108.373333 0-77.226667-36.693333-106.24-95.573333-106.24h-19.626667v214.613333zM702.08 682.666667V366.933333h104.533333c64.853333 0 114.346667 18.773333 114.346667 77.653334 0 29.013333-16.213333 58.88-43.093333 68.266666v2.133334c34.133333 8.106667 59.306667 32 59.306666 74.666666 0 63.573333-52.906667 93.013333-122.453333 93.013334h-112.64z m63.146667-187.306667h36.693333c40.106667 0 57.6-16.213333 57.6-41.386667 0-27.733333-18.773333-38.826667-56.746667-38.826666h-37.546666v80.213333z m0 138.666667h43.946666c43.093333 0 66.56-15.36 66.56-48.213334 0-30.72-23.04-43.52-66.56-43.52h-43.946666v91.733334z" fill="#000"/>
    </mask>
  </defs>
  <path d="M0 512c0-159.061333 0-238.549333 25.984-301.269333a341.333333 341.333333 0 0 1 184.746667-184.746667C273.450667 0 352.938667 0 512 0c159.018667 0 238.549333 0 301.269333 25.984a341.333333 341.333333 0 0 1 184.746667 184.746667C1024 273.450667 1024 352.938667 1024 512c0 159.018667 0 238.549333-25.984 301.269333a341.333333 341.333333 0 0 1-184.746667 184.746667C750.549333 1024 671.018667 1024 512 1024c-159.061333 0-238.549333 0-301.269333-25.984a341.333333 341.333333 0 0 1-184.746667-184.746667C0 750.549333 0 671.018667 0 512z" fill="#000" mask="url(#adb-cutout)"/>
</svg>
